<svg width="113" height="64" viewBox="0 0 113 64" fill="none" xmlns="http://www.w3.org/2000/svg">
<path d="M15.72 17.632C15.72 18.608 15.456 19.424 14.928 20.08C14.4 20.72 13.696 21.2 12.816 21.52C11.952 21.84 10.992 22 9.936 22H1.632V4.96H11.112C11.912 4.96 12.6 5.176 13.176 5.608C13.752 6.024 14.2 6.568 14.52 7.24C14.84 7.912 15 8.608 15 9.328C15 10.128 14.792 10.896 14.376 11.632C13.96 12.368 13.352 12.912 12.552 13.264C13.512 13.552 14.28 14.064 14.856 14.8C15.432 15.536 15.72 16.48 15.72 17.632ZM5.568 8.32V11.848H9.432C9.864 11.848 10.248 11.704 10.584 11.416C10.92 11.128 11.088 10.68 11.088 10.072C11.088 9.512 10.936 9.08 10.632 8.776C10.344 8.472 9.992 8.32 9.576 8.32H5.568ZM11.712 16.84C11.712 16.312 11.56 15.864 11.256 15.496C10.952 15.128 10.568 14.944 10.104 14.944H5.568V18.664H9.936C10.432 18.664 10.848 18.496 11.184 18.16C11.536 17.808 11.712 17.368 11.712 16.84ZM25.7183 12.688C24.7903 12.704 23.9503 12.856 23.1983 13.144C22.4463 13.432 21.9023 13.864 21.5663 14.44V22H17.7263V9.4H21.2543V11.944C21.6863 11.096 22.2463 10.432 22.9343 9.952C23.6223 9.472 24.3423 9.224 25.0943 9.208C25.4143 9.208 25.6223 9.216 25.7183 9.232V12.688ZM26.4499 18.232C26.4499 17.4 26.6819 16.672 27.1459 16.048C27.6099 15.424 28.2499 14.936 29.0659 14.584C29.8819 14.216 30.8179 14.032 31.8739 14.032C32.3859 14.032 32.8899 14.08 33.3859 14.176C33.8819 14.256 34.3139 14.376 34.6819 14.536V13.984C34.6819 12.56 33.8419 11.848 32.1619 11.848C31.4579 11.848 30.7939 11.968 30.1699 12.208C29.5619 12.448 28.9139 12.792 28.2259 13.24L27.0739 10.792C28.7379 9.704 30.5619 9.16 32.5459 9.16C34.4339 9.16 35.8979 9.616 36.9379 10.528C37.9939 11.424 38.5219 12.728 38.5219 14.44V17.728C38.5219 18.112 38.5779 18.384 38.6899 18.544C38.8179 18.704 39.0339 18.792 39.3379 18.808V22C39.0019 22.064 38.6979 22.112 38.4259 22.144C38.1539 22.176 37.9139 22.192 37.7059 22.192C36.9859 22.192 36.4339 22.048 36.0499 21.76C35.6819 21.472 35.4499 21.08 35.3539 20.584L35.2819 20.032C34.7219 20.752 34.0499 21.304 33.2659 21.688C32.4819 22.056 31.6739 22.24 30.8419 22.24C30.0099 22.24 29.2579 22.064 28.5859 21.712C27.9299 21.36 27.4099 20.888 27.0259 20.296C26.6419 19.688 26.4499 19 26.4499 18.232ZM34.0819 18.712C34.4819 18.392 34.6819 18.064 34.6819 17.728V16.6C34.3459 16.472 33.9779 16.376 33.5779 16.312C33.1939 16.232 32.8419 16.192 32.5219 16.192C31.8019 16.192 31.2099 16.352 30.7459 16.672C30.2979 16.992 30.0739 17.4 30.0739 17.896C30.0739 18.328 30.2419 18.704 30.5779 19.024C30.9299 19.328 31.3939 19.48 31.9699 19.48C32.3539 19.48 32.7379 19.408 33.1219 19.264C33.5059 19.12 33.8259 18.936 34.0819 18.712ZM53.4484 22H49.6084V14.92C49.6084 14.088 49.4484 13.488 49.1284 13.12C48.8244 12.736 48.4164 12.544 47.9044 12.544C47.3764 12.544 46.8404 12.752 46.2964 13.168C45.7524 13.584 45.3684 14.12 45.1444 14.776V22H41.3044V9.4H44.7604V11.512C45.2244 10.776 45.8804 10.2 46.7284 9.784C47.5764 9.368 48.5524 9.16 49.6564 9.16C50.4724 9.16 51.1284 9.312 51.6244 9.616C52.1364 9.904 52.5204 10.288 52.7764 10.768C53.0484 11.232 53.2244 11.744 53.3044 12.304C53.4004 12.864 53.4484 13.408 53.4484 13.936V22ZM55.2797 15.688C55.2797 14.472 55.5117 13.376 55.9757 12.4C56.4557 11.408 57.1117 10.624 57.9437 10.048C58.7917 9.456 59.7597 9.16 60.8477 9.16C61.7277 9.16 62.5197 9.376 63.2237 9.808C63.9437 10.224 64.4957 10.776 64.8797 11.464V4.48H68.7197V17.728C68.7197 18.112 68.7757 18.384 68.8877 18.544C69.0157 18.704 69.2317 18.792 69.5357 18.808V22C68.8637 22.128 68.3197 22.192 67.9037 22.192C67.2477 22.192 66.7117 22.048 66.2957 21.76C65.8797 21.472 65.6317 21.072 65.5517 20.56L65.4797 19.912C65.0317 20.696 64.4237 21.28 63.6557 21.664C62.8877 22.048 62.0797 22.24 61.2317 22.24C60.0797 22.24 59.0557 21.96 58.1597 21.4C57.2637 20.824 56.5597 20.04 56.0477 19.048C55.5357 18.056 55.2797 16.936 55.2797 15.688ZM64.9037 17.248V14.608C64.6637 13.968 64.2717 13.448 63.7277 13.048C63.1997 12.632 62.6477 12.424 62.0717 12.424C61.5277 12.424 61.0397 12.576 60.6077 12.88C60.1757 13.184 59.8397 13.592 59.5997 14.104C59.3597 14.616 59.2397 15.168 59.2397 15.76C59.2397 16.688 59.5197 17.464 60.0797 18.088C60.6557 18.696 61.3837 19 62.2637 19C62.7917 19 63.2957 18.848 63.7757 18.544C64.2717 18.224 64.6477 17.792 64.9037 17.248ZM5.568 40.256V50H1.632V32.96H4.752L12.648 42.992V32.96H16.584V50H13.368L5.568 40.256ZM25.344 50.24C23.92 50.24 22.704 49.944 21.696 49.352C20.688 48.76 19.912 47.976 19.368 47C18.84 46.024 18.576 44.968 18.576 43.832C18.576 42.616 18.84 41.504 19.368 40.496C19.896 39.488 20.664 38.68 21.672 38.072C22.68 37.464 23.904 37.16 25.344 37.16C26.768 37.16 27.984 37.464 28.992 38.072C30 38.68 30.76 39.48 31.272 40.472C31.8 41.464 32.064 42.528 32.064 43.664C32.064 44.128 32.032 44.536 31.968 44.888H22.656C22.72 45.736 23.024 46.384 23.568 46.832C24.128 47.264 24.76 47.48 25.464 47.48C26.024 47.48 26.56 47.344 27.072 47.072C27.584 46.8 27.936 46.432 28.128 45.968L31.392 46.88C30.896 47.872 30.12 48.68 29.064 49.304C28.024 49.928 26.784 50.24 25.344 50.24ZM22.56 42.536H28.032C27.952 41.736 27.656 41.104 27.144 40.64C26.648 40.16 26.032 39.92 25.296 39.92C24.56 39.92 23.936 40.16 23.424 40.64C22.928 41.12 22.64 41.752 22.56 42.536ZM48.9574 37.4H52.6054L47.3974 50H44.2294L42.3094 44.864L40.3894 50H37.2214L32.0134 37.4H35.6374L39.0214 46.376L40.2214 42.872L37.9654 37.4H41.1094L42.3094 41.192L43.5094 37.4H46.6294L44.3974 42.872L45.5974 46.376L48.9574 37.4ZM64.356 37.952C64.308 37.888 64.14 37.768 63.852 37.592C63.564 37.416 63.204 37.232 62.772 37.04C62.34 36.832 61.868 36.664 61.356 36.536C60.844 36.392 60.332 36.32 59.82 36.32C58.412 36.32 57.708 36.792 57.708 37.736C57.708 38.312 58.012 38.72 58.62 38.96C59.244 39.2 60.132 39.488 61.284 39.824C62.372 40.128 63.308 40.48 64.092 40.88C64.892 41.264 65.508 41.784 65.94 42.44C66.372 43.08 66.588 43.928 66.588 44.984C66.588 45.944 66.412 46.76 66.06 47.432C65.708 48.088 65.228 48.624 64.62 49.04C64.012 49.44 63.324 49.736 62.556 49.928C61.804 50.104 61.02 50.192 60.204 50.192C58.94 50.192 57.66 50.008 56.364 49.64C55.068 49.256 53.924 48.736 52.932 48.08L54.66 44.648C54.724 44.728 54.932 44.88 55.284 45.104C55.636 45.312 56.076 45.536 56.604 45.776C57.132 46.016 57.708 46.224 58.332 46.4C58.972 46.56 59.62 46.64 60.276 46.64C61.668 46.64 62.364 46.216 62.364 45.368C62.364 44.936 62.18 44.6 61.812 44.36C61.46 44.104 60.972 43.888 60.348 43.712C59.724 43.52 59.02 43.304 58.236 43.064C56.668 42.584 55.508 42 54.756 41.312C54.02 40.624 53.652 39.64 53.652 38.36C53.652 37.16 53.932 36.152 54.492 35.336C55.068 34.504 55.836 33.88 56.796 33.464C57.756 33.032 58.804 32.816 59.94 32.816C61.14 32.816 62.276 33.024 63.348 33.44C64.42 33.84 65.332 34.256 66.084 34.688L64.356 37.952ZM80.6359 50H76.7959V42.92C76.7959 42.104 76.6279 41.504 76.2919 41.12C75.9719 40.736 75.5399 40.544 74.9959 40.544C74.5479 40.544 74.0439 40.752 73.4839 41.168C72.9399 41.568 72.5559 42.104 72.3319 42.776V50H68.4919V32.48H72.3319V39.512C72.7799 38.76 73.3879 38.184 74.1559 37.784C74.9239 37.368 75.7639 37.16 76.6759 37.16C77.5239 37.16 78.2119 37.304 78.7399 37.592C79.2679 37.88 79.6679 38.264 79.9399 38.744C80.2119 39.208 80.3959 39.72 80.4919 40.28C80.5879 40.84 80.6359 41.392 80.6359 41.936V50ZM89.1872 50.24C87.7472 50.24 86.5232 49.936 85.5152 49.328C84.5232 48.72 83.7632 47.92 83.2352 46.928C82.7072 45.936 82.4432 44.864 82.4432 43.712C82.4432 42.544 82.7072 41.464 83.2352 40.472C83.7632 39.48 84.5312 38.68 85.5392 38.072C86.5472 37.464 87.7632 37.16 89.1872 37.16C90.6112 37.16 91.8272 37.464 92.8352 38.072C93.8432 38.68 94.6112 39.48 95.1392 40.472C95.6672 41.464 95.9312 42.544 95.9312 43.712C95.9312 44.864 95.6672 45.936 95.1392 46.928C94.6112 47.92 93.8432 48.72 92.8352 49.328C91.8272 49.936 90.6112 50.24 89.1872 50.24ZM86.3792 43.712C86.3792 44.688 86.6432 45.48 87.1712 46.088C87.7152 46.696 88.3872 47 89.1872 47C89.9712 47 90.6272 46.696 91.1552 46.088C91.6992 45.48 91.9712 44.688 91.9712 43.712C91.9712 42.736 91.6992 41.944 91.1552 41.336C90.6272 40.728 89.9712 40.424 89.1872 40.424C88.3872 40.424 87.7152 40.728 87.1712 41.336C86.6432 41.944 86.3792 42.736 86.3792 43.712ZM103.86 50.24C102.436 50.24 101.22 49.944 100.212 49.352C99.2036 48.76 98.4276 47.976 97.8836 47C97.3556 46.024 97.0916 44.968 97.0916 43.832C97.0916 42.616 97.3556 41.504 97.8836 40.496C98.4116 39.488 99.1796 38.68 100.188 38.072C101.196 37.464 102.42 37.16 103.86 37.16C105.284 37.16 106.5 37.464 107.508 38.072C108.516 38.68 109.276 39.48 109.788 40.472C110.316 41.464 110.58 42.528 110.58 43.664C110.58 44.128 110.548 44.536 110.484 44.888H101.172C101.236 45.736 101.54 46.384 102.084 46.832C102.644 47.264 103.276 47.48 103.98 47.48C104.54 47.48 105.076 47.344 105.588 47.072C106.1 46.8 106.452 46.432 106.644 45.968L109.908 46.88C109.412 47.872 108.636 48.68 107.58 49.304C106.54 49.928 105.3 50.24 103.86 50.24ZM101.076 42.536H106.548C106.468 41.736 106.172 41.104 105.66 40.64C105.164 40.16 104.548 39.92 103.812 39.92C103.076 39.92 102.452 40.16 101.94 40.64C101.444 41.12 101.156 41.752 101.076 42.536Z" fill="white"/>
<path fill-rule="evenodd" clip-rule="evenodd" d="M90.5898 4.03324C90.0964 4.16114 89.7059 4.47937 89.4584 4.95518C89.3575 5.14889 89.3196 5.44814 89.2796 6.36143C89.2214 7.69455 89.0924 8.25705 88.6497 9.10797C87.9535 10.4462 86.8098 11.3783 85.2786 11.8556C84.5894 12.0705 83.1774 12.088 82.4688 11.8904C81.3538 11.5796 80.2282 10.8681 79.588 10.0696C79.3947 9.82833 79.0627 9.29472 78.8503 8.88375C78.4322 8.07508 78.1358 7.75038 77.707 7.63127C77.3767 7.53958 77.2956 7.53944 76.969 7.63015C76.6192 7.72732 76.2897 8.01567 76.1322 8.36245C76.0112 8.62887 76.003 8.93747 76.0015 13.3048L76 17.963H94.0078H112.016L111.97 17.6993C111.807 16.7497 111.218 15.7852 110.441 15.193C109.674 14.608 109.136 14.4574 107.535 14.3797C106.193 14.3145 105.403 14.1784 104.433 13.8455C103.777 13.6204 102.685 13.0794 102.191 12.7353L101.84 12.4902L100.521 13.8022L99.2028 15.1142L98.4477 14.3591L97.6926 13.604L98.9049 12.3902C99.5716 11.7225 100.117 11.158 100.117 11.1356C100.117 11.079 99.0112 10.1583 98.9432 10.1583C98.9129 10.1583 98.2861 10.7596 97.5505 11.4945L96.2129 12.8307L95.4766 12.0919L94.7403 11.3531L96.0297 10.0622L97.3192 8.77132L96.7233 8.2695C96.3955 7.99352 96.0999 7.76768 96.0663 7.76768C96.0327 7.76768 95.3802 8.39212 94.6161 9.15536L93.2272 10.5431L92.4883 9.80674L91.7494 9.07036L93.0973 7.72113L94.4451 6.37197L94.2402 6.19957C92.6995 4.9042 92.0187 4.35415 91.7852 4.21598C91.4761 4.03317 90.9187 3.94795 90.5898 4.03324ZM76.5409 20.2943C76.7559 20.67 77.4207 21.3487 77.8402 21.6207C78.0596 21.763 78.4709 21.9553 78.7543 22.0481L79.2695 22.2169H94C108.1 22.2169 108.749 22.2113 109.152 22.0876C110.093 21.7993 111.028 21.0924 111.424 20.369L111.587 20.0724H94.0005H76.4139L76.5409 20.2943Z" fill="white"/>
</svg>
